<svg xmlns="http://www.w3.org/2000/svg" width="1200" height="680" viewBox="0 0 1200 680" role="img" aria-label="Chart glow overlay">
  <defs>
    <radialGradient id="r" cx="70%" cy="20%" r="50%"><stop offset="0" stop-color="#8A70FF" stop-opacity=".34"/><stop offset="1" stop-color="#8A70FF" stop-opacity="0"/></radialGradient>
    <linearGradient id="l" x1="0" y1="0" x2="1" y2="1"><stop offset="0" stop-color="#62D6FF" stop-opacity=".16"/><stop offset="1" stop-color="#65E7C8" stop-opacity="0"/></linearGradient>
  </defs>
  <rect width="1200" height="680" fill="url(#r)"/>
  <rect width="1200" height="680" fill="url(#l)"/>
  <g fill="#8A70FF" opacity=".42"><rect x="930" y="90" width="18" height="18" rx="3"/><rect x="1010" y="156" width="12" height="12" rx="2"/><rect x="1080" y="88" width="10" height="10" rx="2"/></g>
  <g stroke="#FFFFFF" stroke-opacity=".055"><path d="M0 120H1200M0 240H1200M0 360H1200M0 480H1200M0 600H1200"/><path d="M120 0V680M240 0V680M360 0V680M480 0V680M600 0V680M720 0V680M840 0V680M960 0V680M1080 0V680"/></g>
</svg>
